<svg width="21" height="21" viewBox="0 0 21 21" fill="none" xmlns="http://www.w3.org/2000/svg">
<path d="M18.9056 3.99064L15.2504 5.45344L6.25039 1.85344L8.44039 0.976243C9.44181 0.575627 10.559 0.575627 11.5604 0.976243L18.4688 3.73984C18.6254 3.80219 18.7724 3.88741 18.9056 3.99064ZM10.0016 7.55344L13.6352 6.09904L4.63519 2.49904L1.53199 3.74104C1.37542 3.80337 1.22838 3.88739 1.09519 3.99064L10.0004 7.55344H10.0016ZM0.400391 5.41144C0.400391 5.27944 0.414791 5.14864 0.442391 5.02264L9.40039 8.60584V12.6462C9.00386 13.5097 8.79916 14.4489 8.80039 15.399C8.80039 16.383 9.01639 17.3154 9.40039 18.153V19.2786C9.07131 19.2315 8.74903 19.1453 8.44039 19.0218L1.53199 16.2582C1.1979 16.1246 0.911524 15.894 0.709817 15.596C0.508109 15.298 0.400331 14.9465 0.400391 14.5866V5.41144ZM19.6004 5.41144V10.3074C18.419 9.33062 16.9333 8.79747 15.4004 8.80024C14.5014 8.79902 13.6118 8.98195 12.7862 9.33775C11.9607 9.69356 11.2168 10.2147 10.6004 10.869V8.60584L19.5584 5.02264C19.586 5.14864 19.6004 5.27944 19.6004 5.41144ZM15.4004 20.8002C16.8326 20.8002 18.2061 20.2313 19.2188 19.2186C20.2315 18.2059 20.8004 16.8324 20.8004 15.4002C20.8004 13.9681 20.2315 12.5946 19.2188 11.5819C18.2061 10.5692 16.8326 10.0002 15.4004 10.0002C13.9682 10.0002 12.5947 10.5692 11.582 11.5819C10.5693 12.5946 10.0004 13.9681 10.0004 15.4002C10.0004 16.8324 10.5693 18.2059 11.582 19.2186C12.5947 20.2313 13.9682 20.8002 15.4004 20.8002ZM14.2004 16.3518L17.3756 13.1766C17.4881 13.064 17.6407 13.0006 17.8 13.0005C17.8788 13.0005 17.9569 13.0159 18.0297 13.046C18.1026 13.0762 18.1688 13.1203 18.2246 13.176C18.2804 13.2317 18.3246 13.2979 18.3549 13.3707C18.3851 13.4435 18.4007 13.5216 18.4007 13.6004C18.4008 13.6793 18.3853 13.7573 18.3552 13.8302C18.3251 13.903 18.2809 13.9693 18.2252 14.025L14.6252 17.625C14.5695 17.6809 14.5032 17.7253 14.4303 17.7555C14.3575 17.7857 14.2793 17.8013 14.2004 17.8013C14.1215 17.8013 14.0433 17.7857 13.9704 17.7555C13.8975 17.7253 13.8313 17.6809 13.7756 17.625L12.5756 16.425C12.4631 16.3124 12.3999 16.1596 12.4001 16.0004C12.4002 15.8412 12.4635 15.6885 12.5762 15.576C12.6889 15.4635 12.8416 15.4004 13.0008 15.4005C13.16 15.4006 13.3127 15.464 13.4252 15.5766L14.2004 16.3518Z"/>
</svg>
