<svg width="23" height="16" viewBox="0 0 23 16" fill="none" xmlns="http://www.w3.org/2000/svg">
<path d="M0.000143051 2.62002H2.00014L2 13.5H20.8106V15.5H0L0.000143051 2.62002ZM21.4314 5.30967C20.4441 5.30854 19.4975 4.91582 18.7993 4.21765C18.1012 3.51948 17.7084 2.57289 17.7073 1.58553V0.964844H7.77627V1.58553C7.77514 2.57289 7.38242 3.51948 6.68425 4.21765C5.98608 4.91582 5.03949 5.30854 4.05214 5.30967H3.43145V7.79243H4.05214C5.03949 7.79356 5.98608 8.18629 6.68425 8.88445C7.38242 9.58262 7.77514 10.5292 7.77627 11.5166V12.1373H17.7073V11.5166C17.7084 10.5292 18.1012 9.58262 18.7993 8.88445C19.4975 8.18629 20.4441 7.79356 21.4314 7.79243H22.0521V5.30967H21.4314ZM12.7418 10.2752C12.0052 10.2752 11.2852 10.0568 10.6728 9.64756C10.0603 9.23834 9.58301 8.65671 9.30114 7.97622C9.01927 7.29572 8.94552 6.54692 9.08921 5.82451C9.23291 5.1021 9.5876 4.43852 10.1084 3.91769C10.6293 3.39686 11.2928 3.04217 12.0152 2.89847C12.7377 2.75477 13.4865 2.82852 14.167 3.1104C14.8475 3.39227 15.4291 3.8696 15.8383 4.48203C16.2475 5.09446 16.4659 5.81449 16.4659 6.55105C16.4648 7.53841 16.0721 8.485 15.3739 9.18317C14.6757 9.88133 13.7291 10.2741 12.7418 10.2752Z" />
<path d="M6.53509 1.58553V0.964844H3.43164V4.06829H4.05233C4.71058 4.06757 5.34166 3.80577 5.80711 3.34031C6.27256 2.87486 6.53437 2.24378 6.53509 1.58553ZM4.05233 9.03381H3.43164V12.1373H6.53509V11.5166C6.53437 10.8583 6.27256 10.2272 5.80711 9.76179C5.34166 9.29633 4.71058 9.03453 4.05233 9.03381ZM21.4316 4.06829H22.0523V0.964844H18.9489V1.58553C18.9496 2.24378 19.2114 2.87486 19.6769 3.34031C20.1423 3.80577 20.7734 4.06757 21.4316 4.06829ZM18.9489 11.5166V12.1373H22.0523V9.03381H21.4316C20.7734 9.03453 20.1423 9.29633 19.6769 9.76179C19.2114 10.2272 18.9496 10.8583 18.9489 11.5166Z"/>
<path d="M12.7415 9.03388C14.1127 9.03388 15.2243 7.92231 15.2243 6.55112C15.2243 5.17993 14.1127 4.06836 12.7415 4.06836C11.3704 4.06836 10.2588 5.17993 10.2588 6.55112C10.2588 7.92231 11.3704 9.03388 12.7415 9.03388Z" />
</svg>
