<svg width="20" height="20" viewBox="0 0 20 20" fill="none" xmlns="http://www.w3.org/2000/svg">
<path d="M11.3112 0.543784C10.5862 -0.181261 9.41125 -0.181261 8.68625 0.543784L0.54375 8.68804C-0.18125 9.41309 -0.18125 10.5869 0.54375 11.3107L8.68875 19.4562C9.41375 20.1813 10.5875 20.1813 11.3112 19.4562L19.4562 11.3107C20.1812 10.5857 20.1812 9.41184 19.4562 8.68804L11.3112 0.543784ZM9.99875 5.00031C10.6675 5.00031 11.1912 5.57785 11.1237 6.24414L10.6862 10.6282C10.6715 10.8004 10.5928 10.9608 10.4654 11.0777C10.3381 11.1946 10.1716 11.2595 9.99875 11.2595C9.82591 11.2595 9.65936 11.1946 9.53205 11.0777C9.40475 10.9608 9.32595 10.8004 9.31125 10.6282L8.87375 6.24414C8.85804 6.08692 8.87543 5.92816 8.92481 5.77807C8.97418 5.62798 9.05445 5.4899 9.16043 5.37273C9.26641 5.25555 9.39576 5.16187 9.54015 5.09773C9.68454 5.03359 9.84076 5.0004 9.99875 5.00031ZM10.0012 12.5008C10.3328 12.5008 10.6507 12.6325 10.8851 12.8669C11.1196 13.1014 11.2512 13.4193 11.2512 13.7509C11.2512 14.0824 11.1196 14.4004 10.8851 14.6348C10.6507 14.8692 10.3328 15.0009 10.0012 15.0009C9.66973 15.0009 9.35179 14.8692 9.11737 14.6348C8.88295 14.4004 8.75125 14.0824 8.75125 13.7509C8.75125 13.4193 8.88295 13.1014 9.11737 12.8669C9.35179 12.6325 9.66973 12.5008 10.0012 12.5008Z" />
</svg>
