<svg width="21" height="21" viewBox="0 0 21 21" fill="none" xmlns="http://www.w3.org/2000/svg">
<path d="M18.9056 3.99064L15.2504 5.45344L6.25041 1.85344L8.44041 0.976243C9.44183 0.575627 10.559 0.575627 11.5604 0.976243L18.4688 3.73984C18.6254 3.80219 18.7724 3.88741 18.9056 3.99064ZM10.0016 7.55344L13.6352 6.09904L4.63521 2.49904L1.53201 3.74104C1.37543 3.80337 1.2284 3.88739 1.09521 3.99064L10.0004 7.55344H10.0016ZM0.441207 5.02264C0.413532 5.15038 0.399851 5.28075 0.400407 5.41144V14.5866C0.400347 14.9465 0.508125 15.298 0.709833 15.596C0.91154 15.894 1.19792 16.1246 1.53201 16.2582L8.44041 19.0218C8.58201 19.0782 8.72721 19.1274 8.87241 19.1682L9.31881 17.3862C9.34281 17.2902 9.36921 17.1966 9.40041 17.103V8.60584L0.442407 5.02264H0.441207ZM19.6004 5.41144V8.95984C18.9987 8.76895 18.356 8.74712 17.7427 8.89674C17.1294 9.04637 16.569 9.36168 16.1228 9.80824L10.6004 15.3306V8.60584L19.5584 5.02264C19.586 5.14864 19.6004 5.27944 19.6004 5.41144ZM11.1764 16.4514L16.9724 10.6566C17.1802 10.4457 17.4278 10.2779 17.7007 10.163C17.9737 10.0482 18.2667 9.98846 18.5628 9.98737C18.859 9.98628 19.1524 10.0438 19.4262 10.1567C19.7 10.2695 19.9488 10.4355 20.1581 10.6449C20.3675 10.8544 20.5334 11.1032 20.6461 11.377C20.7589 11.6509 20.8163 11.9443 20.8151 12.2405C20.8139 12.5366 20.7541 12.8296 20.6391 13.1025C20.5241 13.3754 20.3563 13.6229 20.1452 13.8306L14.3492 19.6266C14.0114 19.964 13.5884 20.2033 13.1252 20.319L11.3276 20.769C11.1487 20.8137 10.9614 20.8113 10.7837 20.762C10.6061 20.7128 10.4442 20.6184 10.3138 20.488C10.1835 20.3577 10.0891 20.1958 10.0398 20.0181C9.9906 19.8405 9.98817 19.6531 10.0328 19.4742L10.4828 17.6766C10.598 17.2134 10.838 16.7886 11.1764 16.4514Z"/>
</svg>
