<svg width="24" height="16" viewBox="0 0 24 16" fill="none" xmlns="http://www.w3.org/2000/svg">
<path d="M3 9.5L2.25 8H7.5L6.9 6.5H2L1.25 5H9.05L8.45 3.5H1.11L0.25 2H4C4 1.46957 4.21071 0.960859 4.58579 0.585786C4.96086 0.210714 5.46957 0 6 0H18V4H21L24 8V13H22C22 13.7956 21.6839 14.5587 21.1213 15.1213C20.5587 15.6839 19.7956 16 19 16C18.2044 16 17.4413 15.6839 16.8787 15.1213C16.3161 14.5587 16 13.7956 16 13H12C12 13.7956 11.6839 14.5587 11.1213 15.1213C10.5587 15.6839 9.79565 16 9 16C8.20435 16 7.44129 15.6839 6.87868 15.1213C6.31607 14.5587 6 13.7956 6 13H4V9.5H3ZM19 14.5C19.3978 14.5 19.7794 14.342 20.0607 14.0607C20.342 13.7794 20.5 13.3978 20.5 13C20.5 12.6022 20.342 12.2206 20.0607 11.9393C19.7794 11.658 19.3978 11.5 19 11.5C18.6022 11.5 18.2206 11.658 17.9393 11.9393C17.658 12.2206 17.5 12.6022 17.5 13C17.5 13.3978 17.658 13.7794 17.9393 14.0607C18.2206 14.342 18.6022 14.5 19 14.5ZM20.5 5.5H18V8H22.46L20.5 5.5ZM9 14.5C9.39782 14.5 9.77936 14.342 10.0607 14.0607C10.342 13.7794 10.5 13.3978 10.5 13C10.5 12.6022 10.342 12.2206 10.0607 11.9393C9.77936 11.658 9.39782 11.5 9 11.5C8.60218 11.5 8.22064 11.658 7.93934 11.9393C7.65804 12.2206 7.5 12.6022 7.5 13C7.5 13.3978 7.65804 13.7794 7.93934 14.0607C8.22064 14.342 8.60218 14.5 9 14.5Z" />
</svg>
